<svg width="523" height="258" viewBox="0 0 523 258" fill="none" xmlns="http://www.w3.org/2000/svg">
<g clip-path="url(#clip0_2001_3900)">
<rect x="1" y="1" width="521" height="255.5" rx="23" fill="url(#paint0_linear_2001_3900)"/>
<g clip-path="url(#clip1_2001_3900)">
<rect x="212.375" y="-18.7529" width="140.175" height="72.3536" rx="6.96848" fill="#10132E"/>
<path d="M255.458 22.7134V12.5774H259.259C260.037 12.5774 260.691 12.7127 261.219 12.9832C261.75 13.2538 262.151 13.6332 262.421 14.1216C262.695 14.6066 262.832 15.1724 262.832 15.8191C262.832 16.4691 262.694 17.0333 262.416 17.5118C262.143 17.9869 261.738 18.3548 261.204 18.6154C260.669 18.8728 260.013 19.0015 259.234 19.0015H256.527V17.4771H258.987C259.442 17.4771 259.815 17.4144 260.105 17.289C260.395 17.1604 260.61 16.9739 260.749 16.7298C260.89 16.4823 260.961 16.1788 260.961 15.8191C260.961 15.4595 260.89 15.1526 260.749 14.8986C260.607 14.6412 260.391 14.4466 260.1 14.3146C259.81 14.1793 259.435 14.1117 258.977 14.1117H257.294V22.7134H255.458ZM260.694 18.1205L263.203 22.7134H261.154L258.69 18.1205H260.694ZM267.7 22.8619C266.937 22.8619 266.279 22.7035 265.725 22.3867C265.174 22.0667 264.75 21.6147 264.453 21.0306C264.156 20.4433 264.008 19.7521 264.008 18.9569C264.008 18.175 264.156 17.4887 264.453 16.8981C264.753 16.3042 265.172 15.8422 265.71 15.5123C266.248 15.179 266.88 15.0124 267.606 15.0124C268.074 15.0124 268.516 15.0883 268.932 15.2401C269.351 15.3886 269.721 15.6195 270.041 15.933C270.364 16.2464 270.618 16.6457 270.803 17.1307C270.988 17.6124 271.08 18.1865 271.08 18.853V19.4024H264.849V18.1948H269.363C269.359 17.8516 269.285 17.5464 269.14 17.2791C268.995 17.0086 268.792 16.7958 268.531 16.6407C268.274 16.4856 267.974 16.4081 267.63 16.4081C267.264 16.4081 266.942 16.4972 266.665 16.6753C266.388 16.8502 266.172 17.0812 266.017 17.3682C265.865 17.652 265.788 17.9638 265.784 18.3036V19.3578C265.784 19.7999 265.865 20.1794 266.027 20.4961C266.189 20.8096 266.415 21.0504 266.705 21.2187C266.995 21.3837 267.335 21.4662 267.724 21.4662C267.985 21.4662 268.221 21.4299 268.432 21.3573C268.643 21.2814 268.826 21.1709 268.982 21.0257C269.137 20.8805 269.254 20.7007 269.333 20.4862L271.006 20.6743C270.9 21.1164 270.699 21.5025 270.402 21.8324C270.108 22.1591 269.732 22.4131 269.274 22.5946C268.815 22.7728 268.29 22.8619 267.7 22.8619ZM274.783 22.8668C274.301 22.8668 273.868 22.781 273.482 22.6094C273.099 22.4346 272.795 22.1772 272.571 21.8374C272.35 21.4975 272.239 21.0785 272.239 20.5803C272.239 20.1513 272.319 19.7966 272.477 19.5162C272.635 19.2357 272.851 19.0114 273.125 18.8431C273.399 18.6748 273.708 18.5478 274.051 18.462C274.397 18.3729 274.755 18.3086 275.125 18.269C275.57 18.2228 275.931 18.1816 276.209 18.1453C276.486 18.1057 276.687 18.0463 276.812 17.9671C276.941 17.8846 277.005 17.7576 277.005 17.586V17.5563C277.005 17.1835 276.895 16.8948 276.674 16.6902C276.453 16.4856 276.134 16.3833 275.719 16.3833C275.28 16.3833 274.932 16.479 274.674 16.6704C274.42 16.8618 274.249 17.0878 274.16 17.3484L272.487 17.1109C272.619 16.649 272.837 16.2629 273.14 15.9528C273.444 15.6393 273.815 15.4051 274.254 15.25C274.692 15.0916 275.178 15.0124 275.709 15.0124C276.075 15.0124 276.44 15.0553 276.802 15.1411C277.165 15.2269 277.497 15.3688 277.797 15.5667C278.098 15.7614 278.338 16.027 278.52 16.3635C278.705 16.7001 278.797 17.1208 278.797 17.6256V22.7134H277.075V21.6691H277.015C276.906 21.8803 276.753 22.0782 276.555 22.263C276.36 22.4445 276.115 22.5913 275.818 22.7035C275.524 22.8124 275.179 22.8668 274.783 22.8668ZM275.248 21.5503C275.608 21.5503 275.92 21.4794 276.184 21.3375C276.448 21.1923 276.651 21.001 276.793 20.7634C276.938 20.5258 277.01 20.2668 277.01 19.9864V19.0906C276.954 19.1368 276.859 19.1796 276.723 19.2192C276.591 19.2588 276.443 19.2935 276.278 19.3232C276.113 19.3529 275.95 19.3793 275.788 19.4024C275.626 19.4255 275.486 19.4453 275.367 19.4617C275.1 19.498 274.861 19.5574 274.65 19.6399C274.438 19.7224 274.272 19.8379 274.15 19.9864C274.028 20.1315 273.967 20.3196 273.967 20.5506C273.967 20.8805 274.087 21.1296 274.328 21.2979C274.569 21.4662 274.876 21.5503 275.248 21.5503ZM283.915 22.8619C283.156 22.8619 282.504 22.6952 281.96 22.362C281.418 22.0287 281.001 21.5685 280.707 20.9812C280.417 20.3906 280.272 19.7109 280.272 18.9421C280.272 18.17 280.42 17.4887 280.717 16.8981C281.014 16.3042 281.433 15.8422 281.974 15.5123C282.519 15.179 283.162 15.0124 283.905 15.0124C284.522 15.0124 285.068 15.1262 285.543 15.3539C286.021 15.5783 286.402 15.8967 286.686 16.3091C286.97 16.7182 287.131 17.1967 287.171 17.7444H285.459C285.389 17.3781 285.224 17.0729 284.964 16.8288C284.706 16.5813 284.362 16.4576 283.929 16.4576C283.563 16.4576 283.241 16.5566 282.964 16.7545C282.687 16.9492 282.471 17.2297 282.316 17.5959C282.164 17.9621 282.088 18.401 282.088 18.9124C282.088 19.4304 282.164 19.8758 282.316 20.2487C282.468 20.6182 282.681 20.9036 282.954 21.1049C283.232 21.3029 283.557 21.4018 283.929 21.4018C284.193 21.4018 284.429 21.3523 284.637 21.2534C284.848 21.1511 285.025 21.0043 285.167 20.8129C285.309 20.6215 285.406 20.3889 285.459 20.115H287.171C287.128 20.6529 286.97 21.1296 286.696 21.5454C286.422 21.9578 286.049 22.2811 285.577 22.5154C285.106 22.7464 284.551 22.8619 283.915 22.8619ZM292.438 15.1114V16.4972H288.068V15.1114H292.438ZM289.147 13.2901H290.939V20.4268C290.939 20.6677 290.975 20.8525 291.048 20.9812C291.123 21.1065 291.222 21.1923 291.344 21.2385C291.467 21.2847 291.602 21.3078 291.75 21.3078C291.863 21.3078 291.965 21.2996 292.057 21.2831C292.153 21.2666 292.225 21.2517 292.275 21.2385L292.577 22.6391C292.481 22.6721 292.344 22.7084 292.166 22.748C291.991 22.7876 291.777 22.8107 291.523 22.8173C291.074 22.8305 290.67 22.7629 290.31 22.6144C289.95 22.4626 289.665 22.2284 289.454 21.9116C289.246 21.5949 289.144 21.1989 289.147 20.7238V13.2901ZM298.015 12.5774H299.836V19.7043C299.833 20.3576 299.694 20.9201 299.42 21.3919C299.147 21.8605 298.764 22.2218 298.272 22.4758C297.784 22.7266 297.215 22.852 296.565 22.852C295.971 22.852 295.436 22.7464 294.961 22.5352C294.489 22.3207 294.115 22.004 293.838 21.585C293.561 21.1659 293.422 20.6446 293.422 20.021H295.248C295.251 20.2949 295.311 20.5308 295.426 20.7287C295.545 20.9267 295.708 21.0785 295.916 21.1841C296.124 21.2897 296.363 21.3424 296.634 21.3424C296.928 21.3424 297.177 21.2814 297.381 21.1593C297.586 21.0339 297.741 20.8492 297.847 20.605C297.955 20.3609 298.011 20.0606 298.015 19.7043V12.5774ZM307.337 15.3638C307.29 14.9316 307.096 14.595 306.753 14.3542C306.413 14.1133 305.971 13.9929 305.426 13.9929C305.043 13.9929 304.715 14.0506 304.441 14.1661C304.167 14.2816 303.958 14.4383 303.813 14.6363C303.668 14.8342 303.593 15.0603 303.59 15.3143C303.59 15.5255 303.638 15.7086 303.734 15.8637C303.833 16.0188 303.966 16.1507 304.134 16.2596C304.303 16.3652 304.489 16.4543 304.694 16.5269C304.898 16.5995 305.105 16.6605 305.312 16.71L306.263 16.9476C306.645 17.0366 307.013 17.1571 307.366 17.3088C307.723 17.4606 308.041 17.652 308.322 17.883C308.605 18.1139 308.83 18.3927 308.995 18.7194C309.16 19.046 309.242 19.4288 309.242 19.8676C309.242 20.4615 309.09 20.9845 308.787 21.4365C308.483 21.8852 308.044 22.2366 307.47 22.4907C306.899 22.7414 306.208 22.8668 305.397 22.8668C304.608 22.8668 303.923 22.7447 303.343 22.5006C302.765 22.2564 302.313 21.9001 301.987 21.4315C301.663 20.963 301.488 20.3922 301.462 19.7191H303.268C303.295 20.0722 303.404 20.3658 303.595 20.6001C303.786 20.8343 304.036 21.0092 304.342 21.1247C304.653 21.2402 304.999 21.2979 305.382 21.2979C305.781 21.2979 306.131 21.2385 306.431 21.1197C306.734 20.9977 306.972 20.8294 307.144 20.6149C307.315 20.3972 307.403 20.1431 307.406 19.8527C307.403 19.5888 307.325 19.371 307.173 19.1994C307.022 19.0246 306.809 18.8794 306.535 18.7639C306.264 18.6451 305.948 18.5395 305.585 18.4472L304.431 18.1502C303.597 17.9357 302.937 17.6107 302.452 17.1752C301.97 16.7364 301.729 16.154 301.729 15.4281C301.729 14.8309 301.891 14.308 302.214 13.8592C302.541 13.4105 302.985 13.0624 303.546 12.815C304.106 12.5642 304.742 12.4388 305.451 12.4388C306.17 12.4388 306.8 12.5642 307.342 12.815C307.886 13.0624 308.313 13.4072 308.623 13.8493C308.934 14.2882 309.094 14.793 309.103 15.3638H307.337Z" fill="white"/>
<rect x="212.375" y="65.7954" width="140.175" height="72.3536" rx="6.96848" fill="#10132E"/>
<path d="M259.568 107.261V97.1255H263.369C264.148 97.1255 264.801 97.2707 265.329 97.561C265.86 97.8514 266.261 98.2506 266.532 98.7587C266.805 99.2636 266.942 99.8377 266.942 100.481C266.942 101.131 266.805 101.708 266.532 102.213C266.258 102.718 265.854 103.116 265.319 103.406C264.784 103.693 264.126 103.837 263.344 103.837H260.825V102.327H263.097C263.552 102.327 263.925 102.248 264.215 102.09C264.506 101.931 264.72 101.713 264.859 101.436C265.001 101.159 265.072 100.841 265.072 100.481C265.072 100.121 265.001 99.8047 264.859 99.5308C264.72 99.257 264.504 99.0441 264.21 98.8924C263.92 98.7373 263.546 98.6598 263.087 98.6598H261.404V107.261H259.568ZM269.572 110.112C269.327 110.112 269.101 110.092 268.894 110.053C268.689 110.017 268.526 109.974 268.404 109.924L268.819 108.528C269.08 108.604 269.313 108.641 269.517 108.637C269.722 108.634 269.902 108.57 270.057 108.444C270.215 108.322 270.349 108.118 270.458 107.831L270.611 107.42L267.854 99.6595H269.755L271.507 105.401H271.586L273.343 99.6595H275.248L272.205 108.182C272.063 108.585 271.875 108.929 271.64 109.216C271.406 109.507 271.119 109.728 270.779 109.88C270.443 110.035 270.04 110.112 269.572 110.112ZM280.284 99.6595V101.045H275.914V99.6595H280.284ZM276.993 97.8382H278.785V104.975C278.785 105.216 278.821 105.401 278.893 105.529C278.969 105.655 279.068 105.74 279.19 105.787C279.312 105.833 279.448 105.856 279.596 105.856C279.708 105.856 279.811 105.848 279.903 105.831C279.999 105.815 280.071 105.8 280.121 105.787L280.423 107.187C280.327 107.22 280.19 107.257 280.012 107.296C279.837 107.336 279.623 107.359 279.369 107.365C278.92 107.379 278.516 107.311 278.156 107.162C277.796 107.011 277.511 106.776 277.3 106.46C277.092 106.143 276.99 105.747 276.993 105.272V97.8382ZM283.737 102.807V107.261H281.946V97.1255H283.698V100.951H283.787C283.965 100.522 284.241 100.184 284.613 99.9366C284.99 99.6859 285.468 99.5605 286.049 99.5605C286.577 99.5605 287.037 99.671 287.43 99.8921C287.822 100.113 288.126 100.437 288.34 100.862C288.558 101.288 288.667 101.807 288.667 102.421V107.261H286.875V102.698C286.875 102.187 286.743 101.789 286.479 101.506C286.219 101.218 285.852 101.075 285.381 101.075C285.064 101.075 284.78 101.144 284.529 101.283C284.282 101.418 284.087 101.614 283.945 101.872C283.807 102.129 283.737 102.441 283.737 102.807ZM293.809 107.41C293.067 107.41 292.423 107.247 291.879 106.92C291.335 106.593 290.912 106.136 290.612 105.549C290.315 104.962 290.166 104.275 290.166 103.49C290.166 102.705 290.315 102.017 290.612 101.426C290.912 100.836 291.335 100.377 291.879 100.05C292.423 99.7238 293.067 99.5605 293.809 99.5605C294.551 99.5605 295.195 99.7238 295.739 100.05C296.284 100.377 296.704 100.836 297.001 101.426C297.302 102.017 297.452 102.705 297.452 103.49C297.452 104.275 297.302 104.962 297.001 105.549C296.704 106.136 296.284 106.593 295.739 106.92C295.195 107.247 294.551 107.41 293.809 107.41ZM293.819 105.975C294.222 105.975 294.558 105.864 294.829 105.643C295.099 105.419 295.3 105.118 295.432 104.742C295.568 104.366 295.635 103.947 295.635 103.485C295.635 103.02 295.568 102.599 295.432 102.223C295.3 101.844 295.099 101.542 294.829 101.317C294.558 101.093 294.222 100.981 293.819 100.981C293.407 100.981 293.063 101.093 292.79 101.317C292.519 101.542 292.316 101.844 292.181 102.223C292.049 102.599 291.983 103.02 291.983 103.485C291.983 103.947 292.049 104.366 292.181 104.742C292.316 105.118 292.519 105.419 292.79 105.643C293.063 105.864 293.407 105.975 293.819 105.975ZM300.764 102.807V107.261H298.972V99.6595H300.685V100.951H300.774C300.949 100.526 301.228 100.187 301.61 99.9366C301.996 99.6859 302.473 99.5605 303.041 99.5605C303.565 99.5605 304.022 99.6727 304.412 99.8971C304.804 100.121 305.108 100.446 305.322 100.872C305.54 101.298 305.647 101.814 305.644 102.421V107.261H303.852V102.698C303.852 102.19 303.72 101.793 303.456 101.506C303.196 101.218 302.834 101.075 302.372 101.075C302.059 101.075 301.78 101.144 301.536 101.283C301.295 101.418 301.105 101.614 300.967 101.872C300.832 102.129 300.764 102.441 300.764 102.807Z" fill="white"/>
<rect x="212.375" y="150.344" width="140.175" height="72.3536" rx="6.96848" fill="#10132E"/>
<path d="M247.613 183.213V181.674H255.7V183.213H252.567V191.81H250.746V183.213H247.613ZM257.422 194.661C257.178 194.661 256.952 194.641 256.744 194.601C256.539 194.565 256.376 194.522 256.254 194.473L256.67 193.077C256.93 193.153 257.163 193.189 257.368 193.186C257.572 193.183 257.752 193.118 257.907 192.993C258.065 192.871 258.199 192.666 258.308 192.379L258.461 191.968L255.705 184.208H257.605L259.357 189.949H259.436L261.193 184.208H263.099L260.055 192.731C259.913 193.133 259.725 193.478 259.491 193.765C259.257 194.055 258.969 194.276 258.63 194.428C258.293 194.583 257.891 194.661 257.422 194.661ZM264.339 194.661V184.208H266.1V185.465H266.204C266.297 185.28 266.427 185.084 266.595 184.876C266.764 184.665 266.991 184.485 267.278 184.337C267.565 184.185 267.932 184.109 268.377 184.109C268.964 184.109 269.494 184.259 269.966 184.559C270.441 184.856 270.817 185.297 271.094 185.881C271.375 186.462 271.515 187.174 271.515 188.019C271.515 188.854 271.378 189.563 271.104 190.147C270.83 190.731 270.457 191.177 269.986 191.483C269.514 191.79 268.979 191.944 268.382 191.944C267.947 191.944 267.585 191.871 267.298 191.726C267.011 191.581 266.78 191.406 266.605 191.201C266.434 190.993 266.3 190.797 266.204 190.612H266.13V194.661H264.339ZM266.095 188.009C266.095 188.501 266.165 188.931 266.303 189.301C266.445 189.67 266.648 189.959 266.912 190.167C267.179 190.371 267.503 190.474 267.882 190.474C268.278 190.474 268.61 190.368 268.877 190.157C269.144 189.943 269.345 189.651 269.481 189.281C269.619 188.908 269.689 188.484 269.689 188.009C269.689 187.537 269.621 187.118 269.486 186.752C269.35 186.386 269.149 186.099 268.882 185.891C268.615 185.683 268.281 185.579 267.882 185.579C267.499 185.579 267.174 185.68 266.907 185.881C266.64 186.082 266.437 186.364 266.298 186.727C266.163 187.09 266.095 187.517 266.095 188.009ZM276.415 191.959C275.652 191.959 274.994 191.8 274.44 191.483C273.889 191.163 273.465 190.711 273.168 190.127C272.871 189.54 272.722 188.849 272.722 188.054C272.722 187.272 272.871 186.585 273.168 185.995C273.468 185.401 273.887 184.939 274.425 184.609C274.963 184.276 275.595 184.109 276.321 184.109C276.789 184.109 277.231 184.185 277.647 184.337C278.066 184.485 278.436 184.716 278.756 185.03C279.079 185.343 279.333 185.742 279.518 186.227C279.703 186.709 279.795 187.283 279.795 187.95V188.499H273.564V187.291H278.078C278.074 186.948 278 186.643 277.855 186.376C277.71 186.105 277.507 185.892 277.246 185.737C276.989 185.582 276.688 185.505 276.345 185.505C275.979 185.505 275.657 185.594 275.38 185.772C275.103 185.947 274.887 186.178 274.732 186.465C274.58 186.749 274.503 187.06 274.499 187.4V188.454C274.499 188.897 274.58 189.276 274.742 189.593C274.903 189.906 275.129 190.147 275.42 190.315C275.71 190.48 276.05 190.563 276.439 190.563C276.7 190.563 276.936 190.527 277.147 190.454C277.358 190.378 277.541 190.268 277.696 190.122C277.852 189.977 277.969 189.797 278.048 189.583L279.721 189.771C279.615 190.213 279.414 190.599 279.117 190.929C278.823 191.256 278.447 191.51 277.988 191.691C277.53 191.869 277.005 191.959 276.415 191.959ZM287.319 186.217L285.686 186.396C285.64 186.231 285.559 186.076 285.443 185.93C285.331 185.785 285.179 185.668 284.988 185.579C284.796 185.49 284.562 185.445 284.285 185.445C283.912 185.445 283.599 185.526 283.345 185.688C283.094 185.85 282.97 186.059 282.974 186.316C282.97 186.538 283.051 186.717 283.216 186.856C283.384 186.994 283.661 187.108 284.048 187.197L285.344 187.475C286.063 187.63 286.598 187.875 286.948 188.212C287.301 188.549 287.479 188.989 287.482 189.533C287.479 190.012 287.339 190.434 287.062 190.8C286.788 191.163 286.407 191.447 285.918 191.652C285.43 191.856 284.869 191.959 284.236 191.959C283.305 191.959 282.556 191.764 281.989 191.375C281.421 190.982 281.083 190.436 280.974 189.736L282.721 189.568C282.8 189.911 282.969 190.17 283.226 190.345C283.483 190.52 283.818 190.607 284.231 190.607C284.656 190.607 284.998 190.52 285.255 190.345C285.516 190.17 285.646 189.954 285.646 189.697C285.646 189.479 285.562 189.299 285.394 189.157C285.229 189.015 284.971 188.907 284.622 188.831L283.325 188.558C282.596 188.407 282.056 188.151 281.707 187.791C281.357 187.428 281.184 186.97 281.187 186.415C281.184 185.947 281.311 185.541 281.568 185.198C281.829 184.851 282.19 184.584 282.652 184.396C283.117 184.205 283.653 184.109 284.26 184.109C285.151 184.109 285.852 184.299 286.364 184.678C286.878 185.058 287.197 185.571 287.319 186.217ZM292.276 191.959C291.517 191.959 290.865 191.792 290.321 191.459C289.78 191.125 289.362 190.665 289.068 190.078C288.778 189.487 288.633 188.808 288.633 188.039C288.633 187.267 288.781 186.585 289.078 185.995C289.375 185.401 289.794 184.939 290.335 184.609C290.88 184.276 291.523 184.109 292.266 184.109C292.883 184.109 293.429 184.223 293.904 184.451C294.382 184.675 294.763 184.993 295.047 185.406C295.331 185.815 295.493 186.293 295.532 186.841H293.82C293.75 186.475 293.585 186.17 293.325 185.925C293.067 185.678 292.723 185.554 292.29 185.554C291.924 185.554 291.602 185.653 291.325 185.851C291.048 186.046 290.832 186.326 290.677 186.693C290.525 187.059 290.449 187.498 290.449 188.009C290.449 188.527 290.525 188.973 290.677 189.345C290.829 189.715 291.042 190 291.315 190.202C291.593 190.4 291.918 190.499 292.29 190.499C292.554 190.499 292.79 190.449 292.998 190.35C293.209 190.248 293.386 190.101 293.528 189.91C293.67 189.718 293.767 189.486 293.82 189.212H295.532C295.489 189.75 295.331 190.226 295.057 190.642C294.783 191.054 294.41 191.378 293.938 191.612C293.467 191.843 292.912 191.959 292.276 191.959ZM297.003 191.81V184.208H298.74V185.475H298.82C298.958 185.036 299.196 184.698 299.532 184.46C299.872 184.22 300.26 184.099 300.695 184.099C300.794 184.099 300.905 184.104 301.027 184.114C301.152 184.121 301.256 184.132 301.339 184.149V185.797C301.263 185.77 301.142 185.747 300.978 185.727C300.816 185.704 300.659 185.693 300.507 185.693C300.181 185.693 299.887 185.764 299.626 185.906C299.369 186.044 299.166 186.237 299.018 186.485C298.869 186.732 298.795 187.018 298.795 187.341V191.81H297.003ZM302.529 191.81V184.208H304.321V191.81H302.529ZM303.43 183.129C303.146 183.129 302.902 183.035 302.697 182.847C302.493 182.656 302.391 182.426 302.391 182.159C302.391 181.889 302.493 181.659 302.697 181.471C302.902 181.28 303.146 181.184 303.43 181.184C303.717 181.184 303.961 181.28 304.162 181.471C304.367 181.659 304.469 181.889 304.469 182.159C304.469 182.426 304.367 182.656 304.162 182.847C303.961 183.035 303.717 183.129 303.43 183.129ZM306.163 194.661V184.208H307.925V185.465H308.029C308.121 185.28 308.252 185.084 308.42 184.876C308.588 184.665 308.816 184.485 309.103 184.337C309.39 184.185 309.756 184.109 310.202 184.109C310.789 184.109 311.318 184.259 311.79 184.559C312.265 184.856 312.642 185.297 312.919 185.881C313.199 186.462 313.339 187.174 313.339 188.019C313.339 188.854 313.202 189.563 312.929 190.147C312.655 190.731 312.282 191.177 311.81 191.483C311.338 191.79 310.804 191.944 310.207 191.944C309.771 191.944 309.41 191.871 309.123 191.726C308.836 191.581 308.605 191.406 308.43 191.201C308.258 190.993 308.125 190.797 308.029 190.612H307.955V194.661H306.163ZM307.92 188.009C307.92 188.501 307.989 188.931 308.128 189.301C308.27 189.67 308.473 189.959 308.737 190.167C309.004 190.371 309.327 190.474 309.707 190.474C310.103 190.474 310.434 190.368 310.701 190.157C310.969 189.943 311.17 189.651 311.305 189.281C311.444 188.908 311.513 188.484 311.513 188.009C311.513 187.537 311.445 187.118 311.31 186.752C311.175 186.386 310.974 186.099 310.706 185.891C310.439 185.683 310.106 185.579 309.707 185.579C309.324 185.579 308.999 185.68 308.732 185.881C308.464 186.082 308.262 186.364 308.123 186.727C307.988 187.09 307.92 187.517 307.92 188.009ZM318.67 184.208V185.594H314.3V184.208H318.67ZM315.378 182.387H317.17V189.524C317.17 189.764 317.206 189.949 317.279 190.078C317.355 190.203 317.454 190.289 317.576 190.335C317.698 190.381 317.833 190.404 317.982 190.404C318.094 190.404 318.196 190.396 318.289 190.38C318.384 190.363 318.457 190.348 318.506 190.335L318.808 191.736C318.713 191.769 318.576 191.805 318.397 191.845C318.223 191.884 318.008 191.907 317.754 191.914C317.305 191.927 316.901 191.86 316.542 191.711C316.182 191.559 315.896 191.325 315.685 191.008C315.477 190.692 315.375 190.296 315.378 189.82V182.387Z" fill="white"/>
<rect x="212.375" y="234.892" width="140.175" height="72.3536" rx="6.96848" fill="#10132E"/>
</g>
<g clip-path="url(#clip2_2001_3900)">
<rect x="362.197" y="-54.7568" width="140.175" height="72.3536" rx="6.96848" fill="#10132E"/>
<rect x="362.197" y="29.7915" width="140.175" height="72.3536" rx="6.96848" fill="#10132E"/>
<path d="M408.715 71.2578H406.755L410.323 61.1218H412.59L416.163 71.2578H414.203L411.496 63.2005H411.417L408.715 71.2578ZM408.779 67.2836H414.124V68.7585H408.779V67.2836ZM419.211 66.8035V71.2578H417.419V63.6558H419.131V64.9476H419.221C419.395 64.5219 419.674 64.1837 420.057 63.933C420.443 63.6822 420.92 63.5568 421.487 63.5568C422.012 63.5568 422.469 63.669 422.858 63.8934C423.251 64.1178 423.554 64.4428 423.769 64.8684C423.987 65.294 424.094 65.8104 424.091 66.4175V71.2578H422.299V66.6946C422.299 66.1865 422.167 65.7889 421.903 65.5019C421.642 65.2148 421.281 65.0713 420.819 65.0713C420.506 65.0713 420.227 65.1406 419.983 65.2792C419.742 65.4144 419.552 65.6108 419.414 65.8681C419.278 66.1255 419.211 66.4373 419.211 66.8035ZM429.218 74.2669C428.575 74.2669 428.022 74.1795 427.56 74.0046C427.098 73.833 426.727 73.6021 426.446 73.3117C426.166 73.0214 425.971 72.6997 425.862 72.3466L427.476 71.9557C427.548 72.1041 427.654 72.251 427.793 72.3961C427.931 72.5446 428.118 72.6667 428.352 72.7624C428.589 72.8614 428.888 72.9108 429.248 72.9108C429.756 72.9108 430.176 72.7871 430.51 72.5397C430.843 72.2955 431.01 71.893 431.01 71.3321V69.8918H430.92C430.828 70.0766 430.693 70.2663 430.515 70.461C430.34 70.6557 430.107 70.819 429.817 70.951C429.53 71.0829 429.168 71.1489 428.733 71.1489C428.149 71.1489 427.619 71.012 427.144 70.7381C426.672 70.461 426.296 70.0486 426.016 69.5008C425.739 68.9498 425.6 68.2602 425.6 67.4321C425.6 66.5973 425.739 65.8929 426.016 65.3188C426.296 64.7414 426.674 64.3042 427.149 64.0072C427.624 63.707 428.154 63.5568 428.738 63.5568C429.183 63.5568 429.55 63.6327 429.837 63.7845C430.127 63.933 430.358 64.1128 430.529 64.324C430.701 64.5318 430.831 64.7282 430.92 64.9129H431.019V63.6558H432.786V71.3815C432.786 72.0315 432.631 72.5694 432.321 72.995C432.011 73.4206 431.587 73.739 431.049 73.9502C430.511 74.1613 429.901 74.2669 429.218 74.2669ZM429.233 69.7434C429.612 69.7434 429.936 69.651 430.203 69.4662C430.47 69.2814 430.673 69.0158 430.812 68.6694C430.95 68.3229 431.019 67.9072 431.019 67.4222C431.019 66.9438 430.95 66.5247 430.812 66.1651C430.676 65.8054 430.475 65.5266 430.208 65.3287C429.944 65.1274 429.619 65.0268 429.233 65.0268C428.834 65.0268 428.5 65.1307 428.233 65.3386C427.966 65.5464 427.765 65.8318 427.629 66.1948C427.494 66.5544 427.426 66.9636 427.426 67.4222C427.426 67.8874 427.494 68.2949 427.629 68.6446C427.768 68.9911 427.971 69.2616 428.238 69.4563C428.509 69.6477 428.84 69.7434 429.233 69.7434ZM439.468 68.0606V63.6558H441.259V71.2578H439.522V69.9067H439.443C439.271 70.3323 438.989 70.6804 438.597 70.951C438.207 71.2215 437.727 71.3568 437.156 71.3568C436.658 71.3568 436.218 71.2463 435.835 71.0252C435.456 70.8008 435.159 70.4758 434.944 70.0502C434.73 69.6213 434.622 69.1033 434.622 68.4962V63.6558H436.414V68.219C436.414 68.7007 436.546 69.0835 436.81 69.3672C437.074 69.651 437.42 69.7928 437.849 69.7928C438.113 69.7928 438.369 69.7285 438.616 69.5998C438.864 69.4711 439.067 69.2798 439.225 69.0257C439.387 68.7684 439.468 68.4467 439.468 68.0606ZM444.893 61.1218V71.2578H443.102V61.1218H444.893ZM448.923 71.4112C448.441 71.4112 448.008 71.3255 447.622 71.1539C447.239 70.979 446.935 70.7216 446.711 70.3818C446.49 70.042 446.379 69.6229 446.379 69.1247C446.379 68.6958 446.458 68.3411 446.617 68.0606C446.775 67.7802 446.991 67.5558 447.265 67.3875C447.539 67.2193 447.848 67.0922 448.191 67.0064C448.537 66.9174 448.895 66.853 449.265 66.8134C449.71 66.7672 450.071 66.726 450.349 66.6897C450.626 66.6501 450.827 66.5907 450.952 66.5115C451.081 66.429 451.145 66.302 451.145 66.1304V66.1007C451.145 65.7279 451.035 65.4392 450.814 65.2346C450.593 65.0301 450.274 64.9278 449.859 64.9278C449.42 64.9278 449.072 65.0235 448.814 65.2148C448.56 65.4062 448.389 65.6322 448.3 65.8929L446.627 65.6553C446.759 65.1934 446.977 64.8073 447.28 64.4972C447.584 64.1837 447.955 63.9495 448.394 63.7944C448.832 63.636 449.317 63.5568 449.849 63.5568C450.215 63.5568 450.58 63.5997 450.942 63.6855C451.305 63.7713 451.637 63.9132 451.937 64.1112C452.238 64.3058 452.478 64.5714 452.66 64.908C452.845 65.2445 452.937 65.6652 452.937 66.17V71.2578H451.215V70.2135H451.155C451.046 70.4247 450.893 70.6227 450.695 70.8074C450.5 70.9889 450.255 71.1357 449.958 71.2479C449.664 71.3568 449.319 71.4112 448.923 71.4112ZM449.388 70.0947C449.748 70.0947 450.06 70.0238 450.324 69.8819C450.588 69.7368 450.791 69.5454 450.933 69.3078C451.078 69.0703 451.15 68.8113 451.15 68.5308V67.635C451.094 67.6812 450.999 67.7241 450.863 67.7637C450.731 67.8033 450.583 67.8379 450.418 67.8676C450.253 67.8973 450.09 67.9237 449.928 67.9468C449.766 67.9699 449.626 67.9897 449.507 68.0062C449.24 68.0425 449.001 68.1019 448.79 68.1844C448.578 68.2668 448.412 68.3823 448.29 68.5308C448.168 68.676 448.107 68.864 448.107 69.095C448.107 69.425 448.227 69.6741 448.468 69.8423C448.709 70.0106 449.016 70.0947 449.388 70.0947ZM454.739 71.2578V63.6558H456.476V64.9228H456.555C456.693 64.484 456.931 64.1458 457.268 63.9082C457.607 63.6674 457.995 63.5469 458.431 63.5469C458.53 63.5469 458.64 63.5519 458.762 63.5618C458.888 63.5684 458.992 63.5799 459.074 63.5964V65.2445C458.998 65.2181 458.878 65.195 458.713 65.1752C458.551 65.1521 458.394 65.1406 458.243 65.1406C457.916 65.1406 457.622 65.2115 457.362 65.3534C457.104 65.492 456.901 65.685 456.753 65.9325C456.604 66.1799 456.53 66.4653 456.53 66.7887V71.2578H454.739Z" fill="white"/>
<rect x="362.197" y="114.34" width="140.175" height="72.3536" rx="6.96848" fill="#10132E"/>
<path d="M418.292 145.67V155.806H416.659L411.883 148.902H411.799V155.806H409.963V145.67H411.606L416.377 152.58H416.466V145.67H418.292ZM423.579 155.955C422.817 155.955 422.159 155.796 421.605 155.48C421.054 155.16 420.63 154.708 420.333 154.124C420.036 153.536 419.887 152.845 419.887 152.05C419.887 151.268 420.036 150.582 420.333 149.991C420.633 149.397 421.052 148.935 421.59 148.605C422.128 148.272 422.759 148.105 423.485 148.105C423.954 148.105 424.396 148.181 424.812 148.333C425.231 148.482 425.6 148.713 425.92 149.026C426.244 149.339 426.498 149.739 426.683 150.224C426.867 150.705 426.96 151.28 426.96 151.946V152.495H420.729V151.288H425.242C425.239 150.945 425.165 150.639 425.02 150.372C424.874 150.102 424.672 149.889 424.411 149.734C424.153 149.579 423.853 149.501 423.51 149.501C423.144 149.501 422.822 149.59 422.545 149.768C422.268 149.943 422.052 150.174 421.897 150.461C421.745 150.745 421.667 151.057 421.664 151.397V152.451C421.664 152.893 421.745 153.272 421.907 153.589C422.068 153.903 422.294 154.143 422.585 154.312C422.875 154.477 423.215 154.559 423.604 154.559C423.865 154.559 424.101 154.523 424.312 154.45C424.523 154.374 424.706 154.264 424.861 154.119C425.016 153.974 425.133 153.794 425.213 153.579L426.885 153.767C426.78 154.209 426.579 154.595 426.282 154.925C425.988 155.252 425.612 155.506 425.153 155.688C424.695 155.866 424.17 155.955 423.579 155.955ZM429.777 148.204L431.311 151.011L432.87 148.204H434.766L432.474 152.005L434.805 155.806H432.92L431.311 153.069L429.718 155.806H427.817L430.133 152.005L427.877 148.204H429.777ZM439.948 148.204V149.59H435.577V148.204H439.948ZM436.656 146.383H438.448V153.52C438.448 153.761 438.484 153.945 438.557 154.074C438.633 154.2 438.732 154.285 438.854 154.332C438.976 154.378 439.111 154.401 439.26 154.401C439.372 154.401 439.474 154.393 439.567 154.376C439.662 154.36 439.735 154.345 439.784 154.332L440.086 155.732C439.991 155.765 439.854 155.801 439.675 155.841C439.501 155.881 439.286 155.904 439.032 155.91C438.583 155.924 438.179 155.856 437.819 155.707C437.46 155.556 437.174 155.321 436.963 155.005C436.755 154.688 436.653 154.292 436.656 153.817V146.383ZM445.524 145.67H447.345V152.797C447.342 153.451 447.204 154.013 446.93 154.485C446.656 154.953 446.273 155.315 445.782 155.569C445.293 155.82 444.724 155.945 444.074 155.945C443.48 155.945 442.946 155.839 442.471 155.628C441.999 155.414 441.624 155.097 441.347 154.678C441.07 154.259 440.931 153.738 440.931 153.114H442.758C442.761 153.388 442.82 153.624 442.936 153.822C443.055 154.02 443.218 154.172 443.426 154.277C443.634 154.383 443.873 154.435 444.143 154.435C444.437 154.435 444.686 154.374 444.891 154.252C445.095 154.127 445.25 153.942 445.356 153.698C445.465 153.454 445.521 153.154 445.524 152.797V145.67ZM455.267 150.214L453.633 150.392C453.587 150.227 453.506 150.072 453.391 149.927C453.279 149.782 453.127 149.664 452.936 149.575C452.744 149.486 452.51 149.442 452.233 149.442C451.86 149.442 451.547 149.523 451.292 149.684C451.042 149.846 450.918 150.055 450.921 150.313C450.918 150.534 450.999 150.714 451.164 150.852C451.332 150.991 451.609 151.105 451.995 151.194L453.292 151.471C454.011 151.626 454.546 151.872 454.895 152.208C455.249 152.545 455.427 152.985 455.43 153.53C455.427 154.008 455.286 154.431 455.009 154.797C454.735 155.16 454.354 155.443 453.866 155.648C453.378 155.853 452.817 155.955 452.183 155.955C451.253 155.955 450.504 155.76 449.936 155.371C449.369 154.978 449.031 154.432 448.922 153.733L450.669 153.564C450.748 153.908 450.916 154.167 451.174 154.341C451.431 154.516 451.766 154.604 452.178 154.604C452.604 154.604 452.945 154.516 453.203 154.341C453.464 154.167 453.594 153.95 453.594 153.693C453.594 153.475 453.51 153.295 453.341 153.154C453.176 153.012 452.919 152.903 452.569 152.827L451.273 152.555C450.543 152.403 450.004 152.147 449.654 151.788C449.305 151.425 449.131 150.966 449.135 150.412C449.131 149.943 449.258 149.537 449.516 149.194C449.776 148.848 450.138 148.581 450.6 148.392C451.065 148.201 451.601 148.105 452.208 148.105C453.099 148.105 453.8 148.295 454.311 148.675C454.826 149.054 455.145 149.567 455.267 150.214Z" fill="white"/>
<rect x="362.197" y="198.888" width="140.175" height="72.3536" rx="6.96848" fill="#10132E"/>
<path d="M419.82 240.355V230.219H423.621C424.4 230.219 425.053 230.364 425.581 230.654C426.112 230.945 426.513 231.344 426.784 231.852C427.057 232.357 427.194 232.931 427.194 233.574C427.194 234.224 427.057 234.802 426.784 235.307C426.51 235.811 426.105 236.209 425.571 236.499C425.036 236.786 424.378 236.93 423.596 236.93H421.077V235.42H423.349C423.804 235.42 424.177 235.341 424.467 235.183C424.758 235.024 424.972 234.807 425.111 234.53C425.253 234.252 425.323 233.934 425.323 233.574C425.323 233.215 425.253 232.898 425.111 232.624C424.972 232.35 424.756 232.137 424.462 231.986C424.172 231.831 423.797 231.753 423.339 231.753H421.656V240.355H419.82ZM428.789 240.355V230.219H430.625V234.51H435.322V230.219H437.163V240.355H435.322V236.049H430.625V240.355H428.789ZM439.16 240.355V230.219H442.961C443.74 230.219 444.393 230.364 444.921 230.654C445.452 230.945 445.853 231.344 446.124 231.852C446.398 232.357 446.535 232.931 446.535 233.574C446.535 234.224 446.398 234.802 446.124 235.307C445.85 235.811 445.446 236.209 444.911 236.499C444.377 236.786 443.718 236.93 442.936 236.93H440.417V235.42H442.689C443.144 235.42 443.517 235.341 443.808 235.183C444.098 235.024 444.312 234.807 444.451 234.53C444.593 234.252 444.664 233.934 444.664 233.574C444.664 233.215 444.593 232.898 444.451 232.624C444.312 232.35 444.096 232.137 443.803 231.986C443.512 231.831 443.138 231.753 442.679 231.753H440.996V240.355H439.16Z" fill="white"/>
</g>
</g>
<rect x="0.5" y="0.5" width="522" height="256.5" rx="23.5" stroke="url(#paint1_linear_2001_3900)"/>
<defs>
<linearGradient id="paint0_linear_2001_3900" x1="108.452" y1="1" x2="447.502" y2="165.672" gradientUnits="userSpaceOnUse">
<stop stop-color="#04071D"/>
<stop offset="1" stop-color="#0C0E23"/>
</linearGradient>
<linearGradient id="paint1_linear_2001_3900" x1="261.5" y1="1" x2="261.5" y2="256.5" gradientUnits="userSpaceOnUse">
<stop stop-color="#363749" stop-opacity="0.43"/>
<stop offset="1" stop-color="#363749" stop-opacity="0.49"/>
</linearGradient>
<clipPath id="clip0_2001_3900">
<rect x="1" y="1" width="521" height="255.5" rx="23" fill="white"/>
</clipPath>
<clipPath id="clip1_2001_3900">
<rect width="140.175" height="295.006" fill="white" transform="translate(212.375 -18.7529)"/>
</clipPath>
<clipPath id="clip2_2001_3900">
<rect width="140.175" height="295.006" fill="white" transform="translate(362.197 -18.7529)"/>
</clipPath>
</defs>
</svg>
